<svg width="32" height="32" viewBox="0 0 32 32" fill="none" xmlns="http://www.w3.org/2000/svg">
<path d="M16 0C7.18018 0 0 7.18018 0 16C0 24.8198 7.18018 32 16 32C24.8198 32 32 24.8198 32 16C31.991 7.18018 24.8198 0 16 0Z" fill="#5A5C6B"/>
<path d="M31.7926 15.9998C31.7926 24.7205 24.7205 31.7926 15.9998 31.7926C7.2791 31.7926 0.207031 24.7205 0.207031 15.9998C0.207031 7.2791 7.2791 0.207031 15.9998 0.207031C24.7205 0.207031 31.7926 7.2791 31.7926 15.9998Z" fill="url(#paint0_linear_3615_993)"/>
<path opacity="0.49" d="M0.297531 15.9998C0.297531 16.0719 0.297531 16.1349 0.297531 16.198C2.85609 17.9818 5.9642 19.0268 9.31555 19.0268C18.0363 19.0268 25.1083 11.9548 25.1083 3.23406C25.1083 3.16198 25.1083 3.09892 25.1083 3.02685C22.5498 1.25208 19.4417 0.207031 16.0903 0.207031C7.3696 0.207031 0.297531 7.2791 0.297531 15.9998Z" fill="white"/>
<path opacity="0.49" d="M16.4687 0.76559C19.6579 0.76559 22.6309 1.71154 25.1173 3.34217C25.1173 3.30613 25.1173 3.27009 25.1173 3.23406C25.1173 3.16199 25.1173 3.09892 25.1173 3.02685C22.5498 1.25208 19.4417 0.207031 16.0903 0.207031C7.3696 0.207031 0.297531 7.2791 0.297531 15.9998C0.297531 16.0719 0.297531 16.135 0.297531 16.198C0.423657 16.2881 0.549783 16.3692 0.675909 16.4503C0.729963 7.78361 7.77501 0.76559 16.4687 0.76559Z" fill="white"/>
<path d="M30.4145 16.0003C30.4145 23.9643 23.9551 30.4237 15.9911 30.4237C8.02716 30.4237 1.5677 23.9643 1.5677 16.0003C1.5677 8.03636 8.02716 1.5769 15.9911 1.5769C23.9641 1.5769 30.4145 8.03636 30.4145 16.0003Z" fill="black"/>
<path d="M29.8015 16C29.8015 23.6217 23.6213 29.8109 15.9997 29.8109C8.3781 29.8109 2.19792 23.6307 2.19792 16C2.19792 8.37843 8.3781 2.19825 15.9997 2.19825C23.6213 2.18924 29.8015 8.36942 29.8015 16Z" fill="#D532A7"/>
<path opacity="0.25" d="M3.1799 17.0448C3.1799 9.4232 9.36008 3.24302 16.9817 3.24302C20.6754 3.24302 24.0358 4.69347 26.5132 7.05383C23.9817 4.08086 20.2069 2.18896 15.9997 2.18896C8.3781 2.18896 2.19792 8.36914 2.19792 15.9908C2.19792 19.9187 3.83756 23.4682 6.4772 25.9817C4.41414 23.5763 3.1799 20.4592 3.1799 17.0448Z" fill="url(#paint1_linear_3615_993)"/>
<path opacity="0.48" d="M25.7928 6.26196C27.6126 8.6043 28.7027 11.5412 28.7027 14.7394C28.7027 22.3611 22.5225 28.5412 14.9009 28.5412C11.072 28.5412 7.61258 26.9827 5.10808 24.4692C7.6306 27.7124 11.5765 29.7935 16 29.7935C23.6216 29.7935 29.8018 23.6133 29.8018 15.9827C29.8018 12.1989 28.2702 8.75746 25.7928 6.26196Z" fill="url(#paint2_linear_3615_993)"/>
<mask id="mask0_3615_993" style="mask-type:alpha" maskUnits="userSpaceOnUse" x="4" y="4" width="24" height="24">
<path d="M15.9185 27.1535C22.123 27.1535 27.1527 22.1238 27.1527 15.9193C27.1527 9.71479 22.123 4.68506 15.9185 4.68506C9.71398 4.68506 4.68425 9.71479 4.68425 15.9193C4.68425 22.1238 9.71398 27.1535 15.9185 27.1535Z" fill="url(#paint3_linear_3615_993)"/>
</mask>
<g mask="url(#mask0_3615_993)">
<g style="mix-blend-mode:soft-light">
<path d="M15.9185 27.1535C22.123 27.1535 27.1527 22.1238 27.1527 15.9193C27.1527 9.71479 22.123 4.68506 15.9185 4.68506C9.71398 4.68506 4.68425 9.71479 4.68425 15.9193C4.68425 22.1238 9.71398 27.1535 15.9185 27.1535Z" fill="url(#paint4_linear_3615_993)"/>
</g>
</g>
<mask id="mask1_3615_993" style="mask-type:alpha" maskUnits="userSpaceOnUse" x="2" y="2" width="24" height="21">
<path d="M2.18945 15.9995C2.18945 18.1617 2.68495 20.2067 3.57684 22.0266C5.36963 22.6302 7.31558 22.9635 9.3426 22.9635C18.3786 22.9635 25.703 16.4139 25.703 8.32386C25.703 7.52205 25.6309 6.73827 25.4867 5.9725C23.0093 3.63016 19.6669 2.18872 15.9912 2.18872C8.36963 2.18872 2.18945 8.3689 2.18945 15.9995Z" fill="url(#paint5_linear_3615_993)"/>
</mask>
<g mask="url(#mask1_3615_993)">
<path d="M2.18945 15.9995C2.18945 18.1617 2.68495 20.2067 3.57684 22.0266C5.36963 22.6302 7.31558 22.9635 9.3426 22.9635C18.3786 22.9635 25.703 16.4139 25.703 8.32386C25.703 7.52205 25.6309 6.73827 25.4867 5.9725C23.0093 3.63016 19.6669 2.18872 15.9912 2.18872C8.36963 2.18872 2.18945 8.3689 2.18945 15.9995Z" fill="url(#paint6_linear_3615_993)"/>
</g>
<mask id="mask2_3615_993" style="mask-type:alpha" maskUnits="userSpaceOnUse" x="3" y="15" width="26" height="14">
<path d="M27.4053 15.343C27.4143 15.5232 27.4143 15.7033 27.4143 15.8925C27.4143 22.1898 22.2881 27.3159 15.9908 27.3159C10.7656 27.3159 6.3422 23.7844 4.99085 18.9826L3.76562 19.1808C5.21607 24.5682 10.144 28.5502 15.9908 28.5502C22.9728 28.5502 28.6485 22.8745 28.6485 15.8925C28.6485 15.6403 28.6395 15.397 28.6215 15.1448L27.4053 15.343Z" fill="url(#paint7_linear_3615_993)"/>
</mask>
<g mask="url(#mask2_3615_993)">
<g style="mix-blend-mode:overlay">
<path d="M27.4053 15.343C27.4143 15.5232 27.4143 15.7033 27.4143 15.8925C27.4143 22.1898 22.2881 27.3159 15.9908 27.3159C10.7656 27.3159 6.3422 23.7844 4.99085 18.9826L3.76562 19.1808C5.21607 24.5682 10.144 28.5502 15.9908 28.5502C22.9728 28.5502 28.6485 22.8745 28.6485 15.8925C28.6485 15.6403 28.6395 15.397 28.6215 15.1448L27.4053 15.343Z" fill="url(#paint8_linear_3615_993)"/>
</g>
</g>
<mask id="mask3_3615_993" style="mask-type:alpha" maskUnits="userSpaceOnUse" x="3" y="3" width="25" height="13">
<path d="M4.61238 14.9914C5.07184 9.10851 9.99977 4.46888 15.9998 4.46888C20.7745 4.46888 24.8826 7.41482 26.5853 11.595L27.8376 11.4058C26.0178 6.64005 21.4052 3.24365 16.0088 3.24365C9.27004 3.24365 3.74752 8.54095 3.36914 15.1896L4.61238 14.9914Z" fill="url(#paint9_linear_3615_993)"/>
</mask>
<g mask="url(#mask3_3615_993)">
<g style="mix-blend-mode:overlay">
<path d="M4.61238 14.9914C5.07184 9.10851 9.99977 4.46888 15.9998 4.46888C20.7745 4.46888 24.8826 7.41482 26.5853 11.595L27.8376 11.4058C26.0178 6.64005 21.4052 3.24365 16.0088 3.24365C9.27004 3.24365 3.74752 8.54095 3.36914 15.1896L4.61238 14.9914Z" fill="url(#paint10_linear_3615_993)"/>
</g>
</g>
<path d="M23 10.5072L21.59 9L16 14.9755L10.41 9L9 10.5072L14.59 16.4828L9 22.4583L10.41 23.9655L16 17.99L21.59 23.9655L23 22.4583L17.41 16.4828L23 10.5072Z" fill="white"/>
<defs>
<linearGradient id="paint0_linear_3615_993" x1="7.68439" y1="3.55708" x2="30.0235" y2="36.9888" gradientUnits="userSpaceOnUse">
<stop offset="0.0335052" stop-color="#363636"/>
<stop offset="0.3608" stop-color="#B8B8B8"/>
<stop offset="0.7448" stop-color="#424242"/>
<stop offset="1" stop-color="#969696"/>
</linearGradient>
<linearGradient id="paint1_linear_3615_993" x1="2.19083" y1="14.0898" x2="26.5131" y2="14.0898" gradientUnits="userSpaceOnUse">
<stop stop-color="white"/>
<stop offset="1" stop-color="white"/>
</linearGradient>
<linearGradient id="paint2_linear_3615_993" x1="5.10199" y1="18.0346" x2="29.8029" y2="18.0346" gradientUnits="userSpaceOnUse">
<stop stop-color="white"/>
<stop offset="1" stop-color="white" stop-opacity="0.21"/>
</linearGradient>
<linearGradient id="paint3_linear_3615_993" x1="4.68984" y1="15.9235" x2="27.1555" y2="15.9235" gradientUnits="userSpaceOnUse">
<stop stop-color="white"/>
<stop offset="1"/>
</linearGradient>
<linearGradient id="paint4_linear_3615_993" x1="4.68984" y1="15.9235" x2="27.1555" y2="15.9235" gradientUnits="userSpaceOnUse">
<stop stop-color="white"/>
<stop offset="1" stop-color="white" stop-opacity="0"/>
</linearGradient>
<linearGradient id="paint5_linear_3615_993" x1="9.75177" y1="0.576901" x2="17.5581" y2="22.7119" gradientUnits="userSpaceOnUse">
<stop stop-color="white"/>
<stop offset="1"/>
</linearGradient>
<linearGradient id="paint6_linear_3615_993" x1="9.75177" y1="0.576901" x2="17.5581" y2="22.7119" gradientUnits="userSpaceOnUse">
<stop stop-color="white"/>
<stop offset="1" stop-color="white" stop-opacity="0"/>
</linearGradient>
<linearGradient id="paint7_linear_3615_993" x1="25.5873" y1="28.3115" x2="16.2061" y2="18.2456" gradientUnits="userSpaceOnUse">
<stop stop-color="white"/>
<stop offset="1"/>
</linearGradient>
<linearGradient id="paint8_linear_3615_993" x1="25.5873" y1="28.3115" x2="16.2061" y2="18.2456" gradientUnits="userSpaceOnUse">
<stop stop-color="white"/>
<stop offset="1" stop-color="white" stop-opacity="0.16"/>
</linearGradient>
<linearGradient id="paint9_linear_3615_993" x1="7.91217" y1="1.08064" x2="16.8826" y2="15.05" gradientUnits="userSpaceOnUse">
<stop stop-color="white"/>
<stop offset="1"/>
</linearGradient>
<linearGradient id="paint10_linear_3615_993" x1="7.91217" y1="1.08064" x2="16.8826" y2="15.05" gradientUnits="userSpaceOnUse">
<stop stop-color="white"/>
<stop offset="1" stop-color="white" stop-opacity="0"/>
</linearGradient>
</defs>
</svg>
