<svg width="15" height="16" viewBox="0 0 15 16" fill="none" xmlns="http://www.w3.org/2000/svg">
<path d="M6.02639 8.00003C6.02639 7.17271 6.68592 6.50046 7.49895 6.50046C8.31198 6.50046 8.97151 7.17271 8.97151 8.00003C8.97151 8.82737 8.31196 9.49966 7.49895 9.49966C6.68594 9.49966 6.02639 8.82737 6.02639 8.00003Z" fill="url(#paint0_linear_3615_473)"/>
<path fill-rule="evenodd" clip-rule="evenodd" d="M5.56839 0.5H9.42883L9.59234 1.33668L9.59291 1.33954L9.86185 2.67496C10.2454 2.84736 10.6011 3.06081 10.9301 3.30241L12.2745 2.84422L13.0714 2.59258L13.4875 3.3198L14.5747 5.17403L15 5.91742L14.3666 6.48019L13.3582 7.35449C13.3899 7.55074 13.4192 7.77228 13.4192 7.99997C13.4192 8.22766 13.3899 8.44923 13.3582 8.64551L14.3711 9.52375L15 10.0826L14.572 10.8305L13.4877 12.68L13.0714 13.4093L12.2642 13.1524L10.9301 12.6976C10.6011 12.9392 10.2454 13.1526 9.86185 13.325L9.59291 14.6604L9.59234 14.6633L9.42884 15.5H5.56838L5.40638 14.6614L5.13644 13.3251C4.75284 13.1527 4.39709 12.9392 4.06806 12.6976L2.72457 13.1555L1.92602 13.4095L1.51123 12.6796L0.422976 10.8251L0 10.0826L0.631504 9.5198L1.64024 8.6452C1.60869 8.44947 1.57887 8.22707 1.57887 7.99997C1.57887 7.77287 1.60869 7.55051 1.64024 7.3548L0.626456 6.47576L2.12992e-05 5.9174L0.426202 5.16925L1.51137 3.32016L1.92602 2.59235L2.73393 2.84761L4.06805 3.30241C4.39707 3.06077 4.75283 2.8473 5.13644 2.67489L5.40639 1.33847L5.56839 0.5ZM7.49895 5.49986C6.14437 5.49986 5.04468 6.61945 5.04468 8.00003C5.04468 9.38059 6.14435 10.5003 7.49895 10.5003C8.85355 10.5003 9.95322 9.38059 9.95322 8.00003C9.95322 6.61945 8.85353 5.49986 7.49895 5.49986Z" fill="url(#paint1_linear_3615_473)"/>
<defs>
<linearGradient id="paint0_linear_3615_473" x1="7.5" y1="0.5" x2="7.5" y2="15.5" gradientUnits="userSpaceOnUse">
<stop stop-color="white"/>
<stop offset="1" stop-color="white" stop-opacity="0.71"/>
</linearGradient>
<linearGradient id="paint1_linear_3615_473" x1="7.5" y1="0.5" x2="7.5" y2="15.5" gradientUnits="userSpaceOnUse">
<stop stop-color="white"/>
<stop offset="1" stop-color="white" stop-opacity="0.71"/>
</linearGradient>
</defs>
</svg>
